<svg xmlns="http://www.w3.org/2000/svg" xmlns:xlink="http://www.w3.org/1999/xlink" width="1920" zoomAndPan="magnify" viewBox="0 0 1440 809.999993" height="1080" preserveAspectRatio="xMidYMid meet" version="1.0"><defs><g/><clipPath id="cfe5a19f8c"><path d="M 0 226.527344 L 115 226.527344 L 115 445 L 0 445 Z M 0 226.527344 " clip-rule="nonzero"/></clipPath><clipPath id="070637c7b1"><path d="M 34 318 L 149.25 318 L 149.25 537 L 34 537 Z M 34 318 " clip-rule="nonzero"/></clipPath></defs><g clip-path="url(#cfe5a19f8c)"><path fill="#ff0000" d="M 114.703125 226.945312 L 114.703125 295.753906 L 34.433594 376.023438 L 68.839844 410.429688 L 34.464844 444.835938 L 0.0585938 410.429688 L 0.0585938 387.511719 L 0.0273438 387.480469 L 0.0585938 387.480469 L 0.0273438 364.597656 L 0.0585938 364.566406 L 0.0273438 364.535156 L 0.0273438 341.617188 Z M 114.703125 226.945312 " fill-opacity="1" fill-rule="nonzero"/></g><g clip-path="url(#070637c7b1)"><path fill="#ff0000" d="M 114.703125 318.671875 L 149.109375 353.074219 L 149.109375 421.886719 L 34.433594 536.5625 L 34.433594 513.644531 L 34.464844 513.644531 L 34.433594 513.613281 L 34.433594 490.699219 L 34.464844 490.699219 L 34.464844 467.78125 L 34.433594 467.75 L 114.703125 387.480469 L 80.296875 353.074219 Z M 114.703125 318.671875 " fill-opacity="1" fill-rule="nonzero"/></g><g fill="#000000" fill-opacity="1"><g transform="translate(171.365316, 459.653932)"><g><path d="M 61.15625 -140.71875 C 68.21875 -140.582031 76.015625 -140.113281 84.546875 -139.3125 C 93.078125 -138.507812 101.335938 -136.84375 109.328125 -134.3125 L 106.9375 -109.9375 C 101.070312 -110.0625 93.90625 -110.191406 85.4375 -110.328125 C 76.976562 -110.460938 68.6875 -110.53125 60.5625 -110.53125 C 57.5 -110.53125 54.929688 -110.429688 52.859375 -110.234375 C 50.796875 -110.035156 49.128906 -109.632812 47.859375 -109.03125 C 46.597656 -108.425781 45.703125 -107.554688 45.171875 -106.421875 C 44.640625 -105.296875 44.375 -103.734375 44.375 -101.734375 C 44.375 -98.535156 45.335938 -96.101562 47.265625 -94.4375 C 49.203125 -92.769531 52.632812 -91.070312 57.5625 -89.34375 L 83.34375 -79.75 C 94.539062 -75.351562 102.367188 -69.921875 106.828125 -63.453125 C 111.296875 -56.992188 113.53125 -48.632812 113.53125 -38.375 C 113.53125 -30.644531 112.597656 -24.113281 110.734375 -18.78125 C 108.867188 -13.457031 105.835938 -9.257812 101.640625 -6.1875 C 97.441406 -3.125 91.910156 -0.863281 85.046875 0.59375 C 78.179688 2.0625 69.6875 2.796875 59.5625 2.796875 C 54.894531 2.796875 48.0625 2.460938 39.0625 1.796875 C 30.070312 1.128906 19.914062 -0.597656 8.59375 -3.390625 L 10.796875 -29.78125 C 18.785156 -29.644531 25.878906 -29.476562 32.078125 -29.28125 C 38.273438 -29.082031 43.671875 -28.945312 48.265625 -28.875 C 52.867188 -28.8125 56.5 -28.78125 59.15625 -28.78125 C 63.6875 -28.78125 67.148438 -29.015625 69.546875 -29.484375 C 71.953125 -29.953125 73.617188 -30.816406 74.546875 -32.078125 C 75.484375 -33.347656 75.953125 -35.179688 75.953125 -37.578125 C 75.953125 -39.835938 75.617188 -41.632812 74.953125 -42.96875 C 74.285156 -44.300781 73.117188 -45.429688 71.453125 -46.359375 C 69.785156 -47.296875 67.554688 -48.234375 64.765625 -49.171875 L 37.171875 -60.15625 C 26.242188 -64.6875 18.515625 -70.082031 13.984375 -76.34375 C 9.460938 -82.613281 7.203125 -90.8125 7.203125 -100.9375 C 7.203125 -108.925781 8.195312 -115.453125 10.1875 -120.515625 C 12.1875 -125.585938 15.285156 -129.585938 19.484375 -132.515625 C 23.679688 -135.453125 29.242188 -137.550781 36.171875 -138.8125 C 43.109375 -140.082031 51.4375 -140.71875 61.15625 -140.71875 Z M 61.15625 -140.71875 "/></g></g></g><g fill="#000000" fill-opacity="1"><g transform="translate(321.078006, 459.653932)"><g><path d="M 84.140625 -137.90625 C 87.210938 -137.90625 89.910156 -137.039062 92.234375 -135.3125 C 94.566406 -133.582031 96.132812 -131.1875 96.9375 -128.125 L 134.71875 0 L 96.34375 0 L 72.15625 -95.140625 C 71.625 -97.398438 71.15625 -99.828125 70.75 -102.421875 C 70.351562 -105.023438 69.957031 -107.460938 69.5625 -109.734375 L 64.15625 -109.734375 C 63.894531 -107.460938 63.53125 -105.023438 63.0625 -102.421875 C 62.59375 -99.828125 62.09375 -97.398438 61.5625 -95.140625 L 37.375 0 L -1 0 L 36.78125 -128.125 C 37.570312 -131.1875 39.132812 -133.582031 41.46875 -135.3125 C 43.800781 -137.039062 46.5 -137.90625 49.5625 -137.90625 Z M 103.140625 -59.765625 L 103.140625 -32.78125 L 30.578125 -32.78125 L 30.578125 -59.765625 Z M 103.140625 -59.765625 "/></g></g></g><g fill="#000000" fill-opacity="1"><g transform="translate(484.782448, 459.653932)"><g><path d="M 67.953125 -139.90625 C 80.878906 -139.90625 91.40625 -138.640625 99.53125 -136.109375 C 107.664062 -133.578125 113.628906 -129.347656 117.421875 -123.421875 C 121.222656 -117.492188 123.125 -109.132812 123.125 -98.34375 C 123.125 -92.476562 122.289062 -87.144531 120.625 -82.34375 C 118.957031 -77.550781 116.125 -73.65625 112.125 -70.65625 C 108.132812 -67.65625 102.671875 -65.753906 95.734375 -64.953125 L 95.734375 -63.765625 C 98.265625 -63.492188 100.960938 -62.691406 103.828125 -61.359375 C 106.691406 -60.023438 109.359375 -57.859375 111.828125 -54.859375 C 114.296875 -51.867188 116.0625 -47.773438 117.125 -42.578125 L 128.515625 0 L 89.140625 0 L 79.34375 -41.375 C 78.414062 -45.632812 76.953125 -48.460938 74.953125 -49.859375 C 72.953125 -51.265625 70.019531 -51.96875 66.15625 -51.96875 C 56.5625 -52.101562 48.632812 -52.171875 42.375 -52.171875 C 36.113281 -52.171875 30.816406 -52.234375 26.484375 -52.359375 C 22.148438 -52.492188 18.050781 -52.695312 14.1875 -52.96875 L 14.796875 -79.15625 L 67.15625 -79.15625 C 71.957031 -79.15625 75.65625 -79.617188 78.25 -80.546875 C 80.851562 -81.484375 82.6875 -83.179688 83.75 -85.640625 C 84.8125 -88.109375 85.34375 -91.539062 85.34375 -95.9375 C 85.34375 -100.46875 84.8125 -103.929688 83.75 -106.328125 C 82.6875 -108.734375 80.851562 -110.398438 78.25 -111.328125 C 75.65625 -112.265625 71.957031 -112.734375 67.15625 -112.734375 C 53.96875 -112.734375 42.804688 -112.664062 33.671875 -112.53125 C 24.546875 -112.394531 18.316406 -112.195312 14.984375 -111.9375 L 12 -137.90625 C 17.851562 -138.570312 23.378906 -139.039062 28.578125 -139.3125 C 33.773438 -139.582031 39.472656 -139.75 45.671875 -139.8125 C 51.867188 -139.875 59.296875 -139.90625 67.953125 -139.90625 Z M 48.765625 -137.90625 L 48.765625 0 L 12 0 L 12 -137.90625 Z M 48.765625 -137.90625 "/></g></g></g><g fill="#000000" fill-opacity="1"><g transform="translate(647.287625, 459.653932)"><g><path d="M 84.140625 -137.90625 C 87.210938 -137.90625 89.910156 -137.039062 92.234375 -135.3125 C 94.566406 -133.582031 96.132812 -131.1875 96.9375 -128.125 L 134.71875 0 L 96.34375 0 L 72.15625 -95.140625 C 71.625 -97.398438 71.15625 -99.828125 70.75 -102.421875 C 70.351562 -105.023438 69.957031 -107.460938 69.5625 -109.734375 L 64.15625 -109.734375 C 63.894531 -107.460938 63.53125 -105.023438 63.0625 -102.421875 C 62.59375 -99.828125 62.09375 -97.398438 61.5625 -95.140625 L 37.375 0 L -1 0 L 36.78125 -128.125 C 37.570312 -131.1875 39.132812 -133.582031 41.46875 -135.3125 C 43.800781 -137.039062 46.5 -137.90625 49.5625 -137.90625 Z M 103.140625 -59.765625 L 103.140625 -32.78125 L 30.578125 -32.78125 L 30.578125 -59.765625 Z M 103.140625 -59.765625 "/></g></g></g><g fill="#000000" fill-opacity="1"><g transform="translate(810.992051, 459.653932)"><g><path d="M 61.15625 -140.71875 C 68.21875 -140.582031 76.015625 -140.113281 84.546875 -139.3125 C 93.078125 -138.507812 101.335938 -136.84375 109.328125 -134.3125 L 106.9375 -109.9375 C 101.070312 -110.0625 93.90625 -110.191406 85.4375 -110.328125 C 76.976562 -110.460938 68.6875 -110.53125 60.5625 -110.53125 C 57.5 -110.53125 54.929688 -110.429688 52.859375 -110.234375 C 50.796875 -110.035156 49.128906 -109.632812 47.859375 -109.03125 C 46.597656 -108.425781 45.703125 -107.554688 45.171875 -106.421875 C 44.640625 -105.296875 44.375 -103.734375 44.375 -101.734375 C 44.375 -98.535156 45.335938 -96.101562 47.265625 -94.4375 C 49.203125 -92.769531 52.632812 -91.070312 57.5625 -89.34375 L 83.34375 -79.75 C 94.539062 -75.351562 102.367188 -69.921875 106.828125 -63.453125 C 111.296875 -56.992188 113.53125 -48.632812 113.53125 -38.375 C 113.53125 -30.644531 112.597656 -24.113281 110.734375 -18.78125 C 108.867188 -13.457031 105.835938 -9.257812 101.640625 -6.1875 C 97.441406 -3.125 91.910156 -0.863281 85.046875 0.59375 C 78.179688 2.0625 69.6875 2.796875 59.5625 2.796875 C 54.894531 2.796875 48.0625 2.460938 39.0625 1.796875 C 30.070312 1.128906 19.914062 -0.597656 8.59375 -3.390625 L 10.796875 -29.78125 C 18.785156 -29.644531 25.878906 -29.476562 32.078125 -29.28125 C 38.273438 -29.082031 43.671875 -28.945312 48.265625 -28.875 C 52.867188 -28.8125 56.5 -28.78125 59.15625 -28.78125 C 63.6875 -28.78125 67.148438 -29.015625 69.546875 -29.484375 C 71.953125 -29.953125 73.617188 -30.816406 74.546875 -32.078125 C 75.484375 -33.347656 75.953125 -35.179688 75.953125 -37.578125 C 75.953125 -39.835938 75.617188 -41.632812 74.953125 -42.96875 C 74.285156 -44.300781 73.117188 -45.429688 71.453125 -46.359375 C 69.785156 -47.296875 67.554688 -48.234375 64.765625 -49.171875 L 37.171875 -60.15625 C 26.242188 -64.6875 18.515625 -70.082031 13.984375 -76.34375 C 9.460938 -82.613281 7.203125 -90.8125 7.203125 -100.9375 C 7.203125 -108.925781 8.195312 -115.453125 10.1875 -120.515625 C 12.1875 -125.585938 15.285156 -129.585938 19.484375 -132.515625 C 23.679688 -135.453125 29.242188 -137.550781 36.171875 -138.8125 C 43.109375 -140.082031 51.4375 -140.71875 61.15625 -140.71875 Z M 61.15625 -140.71875 "/></g></g></g><g fill="#000000" fill-opacity="1"><g transform="translate(960.704749, 459.653932)"><g><path d="M 84.140625 -137.90625 C 87.210938 -137.90625 89.910156 -137.039062 92.234375 -135.3125 C 94.566406 -133.582031 96.132812 -131.1875 96.9375 -128.125 L 134.71875 0 L 96.34375 0 L 72.15625 -95.140625 C 71.625 -97.398438 71.15625 -99.828125 70.75 -102.421875 C 70.351562 -105.023438 69.957031 -107.460938 69.5625 -109.734375 L 64.15625 -109.734375 C 63.894531 -107.460938 63.53125 -105.023438 63.0625 -102.421875 C 62.59375 -99.828125 62.09375 -97.398438 61.5625 -95.140625 L 37.375 0 L -1 0 L 36.78125 -128.125 C 37.570312 -131.1875 39.132812 -133.582031 41.46875 -135.3125 C 43.800781 -137.039062 46.5 -137.90625 49.5625 -137.90625 Z M 103.140625 -59.765625 L 103.140625 -32.78125 L 30.578125 -32.78125 L 30.578125 -59.765625 Z M 103.140625 -59.765625 "/></g></g></g><g fill="#000000" fill-opacity="1"><g transform="translate(1124.409176, 459.653932)"><g><path d="M 129.515625 -137.90625 L 95.9375 -83.140625 C 94.34375 -80.484375 92.546875 -78.1875 90.546875 -76.25 C 88.546875 -74.320312 86.613281 -72.820312 84.75 -71.75 L 84.75 -71.15625 C 86.613281 -70.09375 88.8125 -68.394531 91.34375 -66.0625 C 93.875 -63.726562 95.875 -61.160156 97.34375 -58.359375 L 131.71875 0 L 90.140625 0 L 50.765625 -72.15625 L 89.34375 -137.90625 Z M 49.5625 -137.90625 L 49.5625 -101.140625 C 49.5625 -96.335938 49.128906 -91.4375 48.265625 -86.4375 C 47.398438 -81.445312 46.101562 -76.753906 44.375 -72.359375 C 45.707031 -68.222656 46.90625 -63.789062 47.96875 -59.0625 C 49.03125 -54.332031 49.5625 -50.035156 49.5625 -46.171875 L 49.5625 0 L 12.1875 0 L 12.1875 -137.90625 Z M 62.5625 -84.140625 L 62.5625 -59.15625 L 38.578125 -59.15625 L 38.578125 -84.140625 Z M 62.5625 -84.140625 "/></g></g></g><g fill="#000000" fill-opacity="1"><g transform="translate(1285.715012, 459.653932)"><g><path d="M 84.140625 -137.90625 C 87.210938 -137.90625 89.910156 -137.039062 92.234375 -135.3125 C 94.566406 -133.582031 96.132812 -131.1875 96.9375 -128.125 L 134.71875 0 L 96.34375 0 L 72.15625 -95.140625 C 71.625 -97.398438 71.15625 -99.828125 70.75 -102.421875 C 70.351562 -105.023438 69.957031 -107.460938 69.5625 -109.734375 L 64.15625 -109.734375 C 63.894531 -107.460938 63.53125 -105.023438 63.0625 -102.421875 C 62.59375 -99.828125 62.09375 -97.398438 61.5625 -95.140625 L 37.375 0 L -1 0 L 36.78125 -128.125 C 37.570312 -131.1875 39.132812 -133.582031 41.46875 -135.3125 C 43.800781 -137.039062 46.5 -137.90625 49.5625 -137.90625 Z M 103.140625 -59.765625 L 103.140625 -32.78125 L 30.578125 -32.78125 L 30.578125 -59.765625 Z M 103.140625 -59.765625 "/></g></g></g></svg>